<svg xmlns="http://www.w3.org/2000/svg" width="1200" height="1200" viewBox="0 0 41 41" shape-rendering="crispEdges"><path fill="#f4d76b" d="M0 0h41v41H0z"/><path stroke="#1a1c2c" d="M2 2.5h7m1 0h7m1 0h1m1 0h1m1 0h2m3 0h2m3 0h7M2 3.5h1m5 0h1m3 0h1m1 0h1m1 0h2m2 0h3m4 0h1m2 0h1m1 0h1m5 0h1M2 4.5h1m1 0h3m1 0h1m1 0h2m2 0h3m3 0h1m1 0h4m4 0h1m1 0h1m1 0h3m1 0h1M2 5.5h1m1 0h3m1 0h1m3 0h1m1 0h3m2 0h2m2 0h5m1 0h2m1 0h1m1 0h3m1 0h1M2 6.5h1m1 0h3m1 0h1m1 0h1m3 0h1m1 0h2m2 0h2m4 0h1m5 0h1m1 0h3m1 0h1M2 7.5h1m5 0h1m2 0h2m4 0h1m1 0h1m3 0h1m6 0h1m1 0h1m5 0h1M2 8.5h7m1 0h1m1 0h1m1 0h1m1 0h1m1 0h1m1 0h1m1 0h1m1 0h1m1 0h1m1 0h1m1 0h1m1 0h7M10 9.5h2m1 0h5m2 0h1m1 0h2m4 0h3M7 10.5h2m2 0h1m4 0h1m8 0h4m3 0h1m1 0h1m1 0h1m1 0h1M2 11.5h6m3 0h2m1 0h1m11 0h2m1 0h1m3 0h4M2 12.5h1m4 0h2m2 0h1m3 0h1m2 0h2m2 0h1m4 0h4m1 0h1m4 0h2M2 13.5h1m1 0h2m4 0h1m6 0h1m1 0h1m1 0h2m1 0h1m3 0h1m1 0h1m1 0h1m2 0h1m1 0h2M3 14.5h1m1 0h2m1 0h1m1 0h3m1 0h2m1 0h1m3 0h1m3 0h1m6 0h2m1 0h1m1 0h2M2 15.5h1m4 0h1m2 0h2m5 0h3m1 0h1m4 0h2m1 0h3m4 0h1M8 16.5h2m3 0h1m2 0h2m1 0h1m3 0h1m3 0h4m1 0h1m2 0h1m1 0h2M4 17.5h1m4 0h2m1 0h1m2 0h4m1 0h1m1 0h2m2 0h1m1 0h1m1 0h1m4 0h3M4 18.5h2m1 0h5m4 0h2m1 0h2m2 0h7m1 0h2m1 0h1m1 0h1m1 0h1M4 19.5h3m2 0h1m1 0h1m1 0h1m5 0h1m2 0h1m1 0h4m1 0h2m2 0h1m2 0h1M2 20.5h1m5 0h3m1 0h3m1 0h4m2 0h6m1 0h1m3 0h1m4 0h1M2 21.5h1m1 0h2m3 0h1m2 0h1m3 0h1m4 0h3m2 0h1m1 0h1m4 0h1m1 0h1m2 0h1M5 22.5h1m2 0h1m2 0h1m2 0h1m1 0h1m1 0h1m3 0h3m1 0h2m3 0h7M2 23.5h1m2 0h1m1 0h1m1 0h1m1 0h1m2 0h5m5 0h2m2 0h3m2 0h3m1 0h1M3 24.5h1m1 0h4m1 0h4m2 0h2m2 0h2m1 0h1m2 0h2m1 0h1m1 0h2m2 0h4M2 25.5h1m2 0h2m3 0h1m1 0h1m1 0h3m4 0h3m1 0h2m2 0h1m1 0h3m1 0h1m2 0h1M2 26.5h3m1 0h4m2 0h3m2 0h3m1 0h1m2 0h1m1 0h1m3 0h1m1 0h1m2 0h1M2 27.5h1m3 0h2m3 0h2m2 0h3m2 0h2m1 0h2m1 0h1m2 0h1m1 0h1m1 0h1m1 0h1M2 28.5h1m1 0h1m2 0h2m1 0h1m1 0h2m1 0h8m4 0h1m1 0h1m2 0h3m2 0h2M2 29.5h1m1 0h2m1 0h1m1 0h2m1 0h2m1 0h2m1 0h1m1 0h1m2 0h2m1 0h1m1 0h1m2 0h1m1 0h1m2 0h1M2 30.5h1m2 0h2m1 0h2m4 0h1m2 0h1m1 0h1m4 0h1m1 0h11m1 0h1M10 31.5h2m1 0h2m1 0h2m4 0h1m2 0h1m4 0h1m3 0h2M2 32.5h7m3 0h1m1 0h5m1 0h2m2 0h2m1 0h1m2 0h1m1 0h1m1 0h3m1 0h1M2 33.5h1m5 0h1m1 0h1m1 0h3m1 0h3m1 0h1m1 0h1m1 0h3m2 0h2m3 0h2m1 0h2M2 34.5h1m1 0h3m1 0h1m2 0h2m1 0h1m3 0h1m1 0h5m1 0h9m1 0h1m1 0h1M2 35.5h1m1 0h3m1 0h1m3 0h5m3 0h1m2 0h3m1 0h1m4 0h1m2 0h1M2 36.5h1m1 0h3m1 0h1m2 0h2m2 0h1m2 0h2m1 0h1m2 0h1m2 0h2m2 0h1m1 0h1m2 0h1m1 0h1M2 37.5h1m5 0h1m4 0h4m4 0h4m3 0h8m2 0h1M2 38.5h7m2 0h2m1 0h1m3 0h4m1 0h1m1 0h2m3 0h1m1 0h4m2 0h1"/></svg>
